<?xml version="1.0" encoding="UTF-8" standalone="no"?>
<!-- Generator: Adobe Illustrator 19.2.1, SVG Export Plug-In . SVG Version: 6.00 Build 0)  -->

<svg
   xmlns:dc="http://purl.org/dc/elements/1.1/"
   xmlns:cc="http://creativecommons.org/ns#"
   xmlns:rdf="http://www.w3.org/1999/02/22-rdf-syntax-ns#"
   xmlns:svg="http://www.w3.org/2000/svg"
   xmlns="http://www.w3.org/2000/svg"
   xmlns:sodipodi="http://sodipodi.sourceforge.net/DTD/sodipodi-0.dtd"
   xmlns:inkscape="http://www.inkscape.org/namespaces/inkscape"
   version="1.1"
   id="Layer_1"
   x="0px"
   y="0px"
   viewBox="0 0 130 130"
   xml:space="preserve"
   inkscape:version="0.91 r13725"
   sodipodi:docname="icon-transparent.svg"
   width="130"
   height="130"
   inkscape:export-filename="/home/abrander/Downloads/icon/Gansoi icon/delme1.png"
   inkscape:export-xdpi="90"
   inkscape:export-ydpi="90"><metadata
     id="metadata4703"><rdf:RDF><cc:Work
         rdf:about=""><dc:format>image/svg+xml</dc:format><dc:type
           rdf:resource="http://purl.org/dc/dcmitype/StillImage" /><dc:title /></cc:Work></rdf:RDF></metadata><defs
     id="defs4701"><linearGradient
       id="SVGID_2_-3"
       gradientUnits="userSpaceOnUse"
       x1="775.61871"
       y1="250.8365"
       x2="775.61871"
       y2="366.93759"
       gradientTransform="translate(-701.64349,-253.05127)"><stop
         offset="0"
         style="stop-color:#F9E402"
         id="stop4685-6" /><stop
         offset="0.3016"
         style="stop-color:#FCD302"
         id="stop4687-7" /><stop
         offset="0.6382"
         style="stop-color:#FEC802"
         id="stop4689-5" /><stop
         offset="1"
         style="stop-color:#FFC402"
         id="stop4691-3" /></linearGradient><linearGradient
       id="SVGID_2_-0"
       gradientUnits="userSpaceOnUse"
       x1="775.61871"
       y1="250.8365"
       x2="775.61871"
       y2="366.93759"
       gradientTransform="translate(-710.65,-243.85)"><stop
         offset="0"
         style="stop-color:#F9E402"
         id="stop4685-9" /><stop
         offset="0.3016"
         style="stop-color:#FCD302"
         id="stop4687-3" /><stop
         offset="0.6382"
         style="stop-color:#FEC802"
         id="stop4689-6" /><stop
         offset="1"
         style="stop-color:#FFC402"
         id="stop4691-0" /></linearGradient></defs><sodipodi:namedview
     pagecolor="#ffffff"
     bordercolor="#666666"
     borderopacity="1"
     objecttolerance="10"
     gridtolerance="10"
     guidetolerance="10"
     inkscape:pageopacity="0"
     inkscape:pageshadow="2"
     inkscape:window-width="1680"
     inkscape:window-height="1013"
     id="namedview4699"
     showgrid="false"
     fit-margin-top="6.95"
     fit-margin-left="0.1"
     fit-margin-right="0.1"
     fit-margin-bottom="6.95"
     inkscape:zoom="5.1346831"
     inkscape:cx="28.65389"
     inkscape:cy="62.98268"
     inkscape:window-x="1920"
     inkscape:window-y="0"
     inkscape:window-maximized="1"
     inkscape:current-layer="Layer_1" /><style
     type="text/css"
     id="style4673">
	.st0{fill:url(#SVGID_1_);}
	.st1{fill:url(#SVGID_2_);}
	.st2{fill:#FFFFFF;}
</style><linearGradient
     id="SVGID_2_"
     gradientUnits="userSpaceOnUse"
     x1="775.61871"
     y1="250.8365"
     x2="775.61871"
     y2="366.93759"
     gradientTransform="translate(-710.65,-243.85)"><stop
       offset="0"
       style="stop-color:#F9E402"
       id="stop4685" /><stop
       offset="0.3016"
       style="stop-color:#FCD302"
       id="stop4687" /><stop
       offset="0.6382"
       style="stop-color:#FEC802"
       id="stop4689" /><stop
       offset="1"
       style="stop-color:#FFC402"
       id="stop4691" /></linearGradient><path
     class="st1"
     d="m 88.9875,9.8525 -47.975,0 c -4.845,0 -9.31,2.565 -11.78,6.745 l -24.035,41.61 c -2.47,4.18 -2.47,9.405 0,13.585 l 24.035,41.61 c 2.47,4.18 6.935,6.745 11.78,6.745 l 47.975,0 c 4.845,0 9.31,-2.565 11.78,-6.745 l 24.035,-41.61 c 2.47,-4.18 2.47,-9.405 0,-13.585 l -24.035,-41.515 c -2.47,-4.18 -6.935,-6.84 -11.78,-6.84 z"
     id="BG"
     inkscape:connector-curvature="0"
     style="fill:#0066a6;fill-opacity:1"
     sodipodi:nodetypes="csccccsscccccc" /><path
     class="st1"
     d="m 90.25,13.95 c 2.6,0 5,1.4 6.3,3.6 l 25.3,43.8 c 1.3,2.2 1.3,5 0,7.3 l -25.3,43.8 c -1.3,2.2 -3.7,3.6 -6.3,3.6 l -50.5,0 c -2.6,0 -5,-1.4 -6.3,-3.6 L 8.15,68.65 c -1.3,-2.2 -1.3,-5 0,-7.3 l 25.3,-43.8 c 1.3,-2.2 3.7,-3.6 6.3,-3.6 l 50.5,0 m 0,-7 -50.5,0 c -5.1,0 -9.8,2.7 -12.4,7.1 l -25.3,43.8 c -2.6,4.4 -2.6,9.9 0,14.3 l 25.3,43.8 c 2.6,4.4 7.3,7.1 12.4,7.1 l 50.5,0 c 5.1,0 9.8,-2.7 12.4,-7.1 l 25.3,-43.8 c 2.6,-4.4 2.6,-9.9 0,-14.3 l -25.3,-43.7 c -2.6,-4.4 -7.3,-7.2 -12.4,-7.2 l 0,0 z"
     id="path4693"
     inkscape:connector-curvature="0"
     style="fill:url(#SVGID_2_)" /><g
     id="g"
     transform="translate(-710.65,-243.85)"><path
       class="st2"
       d="m 789.1,313.5 -14.5,0 0,-9.5 27.4,0 0,33.4 c -5.5,1.5 -16,2.6 -23.7,2.6 -21.1,0 -31.3,-7.3 -31.3,-31.6 0,-24.4 11.4,-30.7 33.1,-30.7 6,0 14.9,0.9 20.1,2.2 l -2.6,9.8 c -3.5,-1.1 -12.1,-1.8 -16.5,-1.8 -15.1,0 -20.6,2.2 -20.6,20.5 0,18.3 5.5,21.2 20,21.2 3.2,0 6.6,-0.4 8.6,-0.9 l 0,-15.2 z"
       id="path4697"
       inkscape:connector-curvature="0"
       style="fill:#ffffff" /></g></svg>